<svg width="20" height="20" viewBox="0 0 20 20" fill="none" xmlns="http://www.w3.org/2000/svg">
<path fill-rule="evenodd" clip-rule="evenodd" d="M13.3838 3.49467C12.9088 3.31512 12.3904 3.28447 11.8975 3.40679C11.6157 3.47675 11.3498 3.59485 11.111 3.75438C11.4719 4.38132 11.6666 5.09721 11.6666 5.83317C11.6666 6.56913 11.4719 7.28502 11.111 7.91196C11.3498 8.07149 11.6157 8.18959 11.8975 8.25955C12.3904 8.38187 12.9088 8.35122 13.3838 8.17167C13.8587 7.99212 14.2678 7.67219 14.5565 7.25445C14.8451 6.8367 14.9998 6.34096 14.9998 5.83317C14.9998 5.32539 14.8451 4.82964 14.5565 4.4119C14.2678 3.99415 13.8587 3.67422 13.3838 3.49467ZM9.99988 9.16658C10.4438 9.49947 10.952 9.74211 11.4961 9.87714C12.3174 10.081 13.1814 10.0299 13.9731 9.73067C14.7647 9.43142 15.4465 8.8982 15.9276 8.20196C16.4087 7.50573 16.6664 6.67948 16.6664 5.83317C16.6664 4.98686 16.4087 4.16062 15.9276 3.46438C15.4465 2.76814 14.7647 2.23492 13.9731 1.93567C13.1814 1.63642 12.3174 1.58534 11.4961 1.78921C10.952 1.92424 10.4438 2.16688 9.99988 2.49976C9.2829 1.96204 8.40666 1.6665 7.49996 1.6665C6.39489 1.6665 5.33508 2.10549 4.55368 2.88689C3.77228 3.66829 3.33329 4.7281 3.33329 5.83317C3.33329 6.93824 3.77228 7.99805 4.55368 8.77945C5.33508 9.56085 6.39489 9.99984 7.49996 9.99984C8.40667 9.99984 9.2829 9.70431 9.99988 9.16658ZM9.16663 3.96978V7.69657C8.70952 8.10544 8.11648 8.33317 7.49996 8.33317C6.83692 8.33317 6.20103 8.06978 5.73219 7.60094C5.26335 7.1321 4.99996 6.49621 4.99996 5.83317C4.99996 5.17013 5.26335 4.53425 5.73219 4.0654C6.20103 3.59656 6.83692 3.33317 7.49996 3.33317C8.11648 3.33317 8.70952 3.5609 9.16663 3.96978ZM9.99922 11.3957C10.779 11.0257 11.6331 10.8324 12.5002 10.8325C13.5242 10.8325 14.5302 11.1021 15.417 11.6142C16.3038 12.1263 17.0402 12.8628 17.5521 13.7497C18.064 14.6365 18.3334 15.6425 18.3333 16.6665C18.3333 16.6665 18.3333 16.6665 18.3333 16.6665V17.4998C18.3333 17.9601 17.9602 18.3332 17.5 18.3332H2.49996C2.03972 18.3332 1.66663 17.9601 1.66663 17.4998V16.6665C1.66663 15.1194 2.28121 13.6357 3.37517 12.5417C4.46913 11.4478 5.95286 10.8332 7.49996 10.8332C8.37275 10.8332 9.22536 11.0288 9.99922 11.3957ZM9.36755 12.9418C8.7932 12.6539 8.15452 12.4998 7.49996 12.4998C6.39489 12.4998 5.33508 12.9388 4.55368 13.7202C3.77228 14.5016 3.33329 15.5614 3.33329 16.6665H11.1707L9.36755 12.9418ZM11.666 12.5834C11.9394 12.5276 12.2188 12.4991 12.5001 12.4991C13.2316 12.4992 13.9501 12.6917 14.5835 13.0575C15.217 13.4233 15.743 13.9494 16.1086 14.5828C16.4743 15.2163 16.6667 15.9349 16.6666 16.6664L13.3333 16.6665C13.3333 15.139 12.7342 13.6732 11.666 12.5834Z" fill="#FDFCFF"/>
</svg>
